<?xml version="1.0" encoding="iso-8859-1"?>
<!-- Uploaded to: SVG Repo, www.svgrepo.com, Generator: SVG Repo Mixer Tools -->
<!DOCTYPE svg PUBLIC "-//W3C//DTD SVG 1.1//EN" "http://www.w3.org/Graphics/SVG/1.1/DTD/svg11.dtd">
<svg fill="#000000" height="800px" width="800px" version="1.1" id="Capa_1" xmlns="http://www.w3.org/2000/svg" xmlns:xlink="http://www.w3.org/1999/xlink" 
	 viewBox="0 0 476.745 476.745" xml:space="preserve">
<g>
	<path d="M263.428,207.73v-32.493h57.776c13.832,0,25.055-11.214,25.055-25.055s-11.223-25.055-25.055-25.055h-57.776V25.055
		C263.428,11.214,252.206,0,238.373,0c-13.832,0-25.056,11.214-25.056,25.055v100.073h-57.776
		c-13.832,0-25.055,11.214-25.055,25.055s11.223,25.055,25.055,25.055h57.776v32.493c-62.897,11.803-110.659,67.034-110.659,133.301
		c0,74.831,60.877,135.714,135.715,135.714c74.839,0,135.714-60.883,135.714-135.714
		C374.087,274.764,326.327,219.533,263.428,207.73z M238.373,426.636c-47.205,0-85.605-38.398-85.605-85.605
		c0-47.207,38.399-85.604,85.605-85.604c47.206,0,85.604,38.397,85.604,85.604C323.977,388.238,285.579,426.636,238.373,426.636z"/>
	<path d="M238.373,305.537c-19.606,0-35.495,15.888-35.495,35.495c0,19.607,15.889,35.494,35.495,35.494
		c19.607,0,35.494-15.888,35.494-35.494C273.867,321.425,257.98,305.537,238.373,305.537z"/>
</g>
</svg>